<mxfile host="app.diagrams.net" agent="Mozilla/5.0 (Macintosh; Intel Mac OS X 10_15_7) AppleWebKit/537.36 (KHTML, like Gecko) Chrome/130.0.0.0 Safari/537.36" version="26.0.8">
  <diagram name="ページ1" id="eATrB09Wg7ombchtY4zk">
    <mxGraphModel dx="954" dy="605" grid="1" gridSize="10" guides="1" tooltips="1" connect="1" arrows="1" fold="1" page="1" pageScale="1" pageWidth="827" pageHeight="1169" math="1" shadow="0">
      <root>
        <mxCell id="0" />
        <mxCell id="1" parent="0" />
        <mxCell id="EfQrhx6-I__CfPdJNOdB-1" value="" style="ellipse;whiteSpace=wrap;html=1;aspect=fixed;" vertex="1" parent="1">
          <mxGeometry x="160" y="160" width="50" height="50" as="geometry" />
        </mxCell>
        <mxCell id="EfQrhx6-I__CfPdJNOdB-2" value="" style="ellipse;whiteSpace=wrap;html=1;aspect=fixed;" vertex="1" parent="1">
          <mxGeometry x="160" y="250" width="50" height="50" as="geometry" />
        </mxCell>
        <mxCell id="EfQrhx6-I__CfPdJNOdB-3" value="" style="ellipse;whiteSpace=wrap;html=1;aspect=fixed;" vertex="1" parent="1">
          <mxGeometry x="160" y="350" width="50" height="50" as="geometry" />
        </mxCell>
        <mxCell id="EfQrhx6-I__CfPdJNOdB-4" value="" style="ellipse;whiteSpace=wrap;html=1;aspect=fixed;" vertex="1" parent="1">
          <mxGeometry x="160" y="450" width="50" height="50" as="geometry" />
        </mxCell>
        <mxCell id="EfQrhx6-I__CfPdJNOdB-7" value="" style="ellipse;whiteSpace=wrap;html=1;aspect=fixed;" vertex="1" parent="1">
          <mxGeometry x="320" y="200" width="50" height="50" as="geometry" />
        </mxCell>
        <mxCell id="EfQrhx6-I__CfPdJNOdB-8" value="" style="ellipse;whiteSpace=wrap;html=1;aspect=fixed;" vertex="1" parent="1">
          <mxGeometry x="320" y="300" width="50" height="50" as="geometry" />
        </mxCell>
        <mxCell id="EfQrhx6-I__CfPdJNOdB-9" value="" style="ellipse;whiteSpace=wrap;html=1;aspect=fixed;" vertex="1" parent="1">
          <mxGeometry x="320" y="400" width="50" height="50" as="geometry" />
        </mxCell>
        <mxCell id="EfQrhx6-I__CfPdJNOdB-10" value="" style="ellipse;whiteSpace=wrap;html=1;aspect=fixed;" vertex="1" parent="1">
          <mxGeometry x="480" y="160" width="50" height="50" as="geometry" />
        </mxCell>
        <mxCell id="EfQrhx6-I__CfPdJNOdB-11" value="" style="ellipse;whiteSpace=wrap;html=1;aspect=fixed;" vertex="1" parent="1">
          <mxGeometry x="480" y="250" width="50" height="50" as="geometry" />
        </mxCell>
        <mxCell id="EfQrhx6-I__CfPdJNOdB-12" value="" style="ellipse;whiteSpace=wrap;html=1;aspect=fixed;" vertex="1" parent="1">
          <mxGeometry x="480" y="350" width="50" height="50" as="geometry" />
        </mxCell>
        <mxCell id="EfQrhx6-I__CfPdJNOdB-13" value="" style="ellipse;whiteSpace=wrap;html=1;aspect=fixed;" vertex="1" parent="1">
          <mxGeometry x="480" y="450" width="50" height="50" as="geometry" />
        </mxCell>
        <mxCell id="EfQrhx6-I__CfPdJNOdB-14" value="" style="endArrow=classic;html=1;rounded=0;exitX=1;exitY=0.5;exitDx=0;exitDy=0;entryX=0;entryY=0.5;entryDx=0;entryDy=0;" edge="1" parent="1" source="EfQrhx6-I__CfPdJNOdB-1" target="EfQrhx6-I__CfPdJNOdB-7">
          <mxGeometry width="50" height="50" relative="1" as="geometry">
            <mxPoint x="270" y="200" as="sourcePoint" />
            <mxPoint x="320" y="150" as="targetPoint" />
          </mxGeometry>
        </mxCell>
        <mxCell id="EfQrhx6-I__CfPdJNOdB-16" value="" style="endArrow=classic;html=1;rounded=0;exitX=1;exitY=0.5;exitDx=0;exitDy=0;entryX=0;entryY=0.5;entryDx=0;entryDy=0;" edge="1" parent="1" source="EfQrhx6-I__CfPdJNOdB-2" target="EfQrhx6-I__CfPdJNOdB-7">
          <mxGeometry width="50" height="50" relative="1" as="geometry">
            <mxPoint x="220" y="195" as="sourcePoint" />
            <mxPoint x="330" y="235" as="targetPoint" />
          </mxGeometry>
        </mxCell>
        <mxCell id="EfQrhx6-I__CfPdJNOdB-17" value="" style="endArrow=classic;html=1;rounded=0;exitX=1;exitY=0.5;exitDx=0;exitDy=0;entryX=0;entryY=0.5;entryDx=0;entryDy=0;" edge="1" parent="1" source="EfQrhx6-I__CfPdJNOdB-3" target="EfQrhx6-I__CfPdJNOdB-7">
          <mxGeometry width="50" height="50" relative="1" as="geometry">
            <mxPoint x="220" y="370" as="sourcePoint" />
            <mxPoint x="330" y="320" as="targetPoint" />
          </mxGeometry>
        </mxCell>
        <mxCell id="EfQrhx6-I__CfPdJNOdB-18" value="" style="endArrow=classic;html=1;rounded=0;exitX=1;exitY=0.5;exitDx=0;exitDy=0;entryX=0;entryY=0.5;entryDx=0;entryDy=0;" edge="1" parent="1" source="EfQrhx6-I__CfPdJNOdB-4" target="EfQrhx6-I__CfPdJNOdB-7">
          <mxGeometry width="50" height="50" relative="1" as="geometry">
            <mxPoint x="230" y="295" as="sourcePoint" />
            <mxPoint x="340" y="245" as="targetPoint" />
          </mxGeometry>
        </mxCell>
        <mxCell id="EfQrhx6-I__CfPdJNOdB-19" value="" style="endArrow=classic;html=1;rounded=0;exitX=1;exitY=0.5;exitDx=0;exitDy=0;entryX=0;entryY=0.5;entryDx=0;entryDy=0;" edge="1" parent="1" source="EfQrhx6-I__CfPdJNOdB-1" target="EfQrhx6-I__CfPdJNOdB-8">
          <mxGeometry width="50" height="50" relative="1" as="geometry">
            <mxPoint x="240" y="305" as="sourcePoint" />
            <mxPoint x="350" y="255" as="targetPoint" />
          </mxGeometry>
        </mxCell>
        <mxCell id="EfQrhx6-I__CfPdJNOdB-20" value="" style="endArrow=classic;html=1;rounded=0;exitX=1;exitY=0.5;exitDx=0;exitDy=0;entryX=0;entryY=0.5;entryDx=0;entryDy=0;" edge="1" parent="1" source="EfQrhx6-I__CfPdJNOdB-2" target="EfQrhx6-I__CfPdJNOdB-8">
          <mxGeometry width="50" height="50" relative="1" as="geometry">
            <mxPoint x="250" y="315" as="sourcePoint" />
            <mxPoint x="310" y="320" as="targetPoint" />
          </mxGeometry>
        </mxCell>
        <mxCell id="EfQrhx6-I__CfPdJNOdB-21" value="" style="endArrow=classic;html=1;rounded=0;exitX=1;exitY=0.5;exitDx=0;exitDy=0;entryX=0;entryY=0.5;entryDx=0;entryDy=0;" edge="1" parent="1" source="EfQrhx6-I__CfPdJNOdB-3" target="EfQrhx6-I__CfPdJNOdB-8">
          <mxGeometry width="50" height="50" relative="1" as="geometry">
            <mxPoint x="260" y="325" as="sourcePoint" />
            <mxPoint x="370" y="275" as="targetPoint" />
          </mxGeometry>
        </mxCell>
        <mxCell id="EfQrhx6-I__CfPdJNOdB-22" value="" style="endArrow=classic;html=1;rounded=0;exitX=1;exitY=0.5;exitDx=0;exitDy=0;entryX=0;entryY=0.5;entryDx=0;entryDy=0;" edge="1" parent="1" source="EfQrhx6-I__CfPdJNOdB-4" target="EfQrhx6-I__CfPdJNOdB-8">
          <mxGeometry width="50" height="50" relative="1" as="geometry">
            <mxPoint x="270" y="335" as="sourcePoint" />
            <mxPoint x="380" y="285" as="targetPoint" />
          </mxGeometry>
        </mxCell>
        <mxCell id="EfQrhx6-I__CfPdJNOdB-23" value="" style="endArrow=classic;html=1;rounded=0;exitX=1;exitY=0.5;exitDx=0;exitDy=0;entryX=0;entryY=0.5;entryDx=0;entryDy=0;" edge="1" parent="1" source="EfQrhx6-I__CfPdJNOdB-1" target="EfQrhx6-I__CfPdJNOdB-9">
          <mxGeometry width="50" height="50" relative="1" as="geometry">
            <mxPoint x="280" y="345" as="sourcePoint" />
            <mxPoint x="390" y="295" as="targetPoint" />
          </mxGeometry>
        </mxCell>
        <mxCell id="EfQrhx6-I__CfPdJNOdB-24" value="" style="endArrow=classic;html=1;rounded=0;exitX=1;exitY=0.5;exitDx=0;exitDy=0;entryX=0;entryY=0.5;entryDx=0;entryDy=0;" edge="1" parent="1" source="EfQrhx6-I__CfPdJNOdB-2" target="EfQrhx6-I__CfPdJNOdB-9">
          <mxGeometry width="50" height="50" relative="1" as="geometry">
            <mxPoint x="290" y="355" as="sourcePoint" />
            <mxPoint x="400" y="305" as="targetPoint" />
          </mxGeometry>
        </mxCell>
        <mxCell id="EfQrhx6-I__CfPdJNOdB-25" value="" style="endArrow=classic;html=1;rounded=0;exitX=1;exitY=0.5;exitDx=0;exitDy=0;entryX=0;entryY=0.5;entryDx=0;entryDy=0;" edge="1" parent="1" source="EfQrhx6-I__CfPdJNOdB-39" target="EfQrhx6-I__CfPdJNOdB-9">
          <mxGeometry width="50" height="50" relative="1" as="geometry">
            <mxPoint x="300" y="365" as="sourcePoint" />
            <mxPoint x="410" y="315" as="targetPoint" />
          </mxGeometry>
        </mxCell>
        <mxCell id="EfQrhx6-I__CfPdJNOdB-26" value="" style="endArrow=classic;html=1;rounded=0;exitX=1;exitY=0.5;exitDx=0;exitDy=0;entryX=0;entryY=0.5;entryDx=0;entryDy=0;" edge="1" parent="1" source="EfQrhx6-I__CfPdJNOdB-4" target="EfQrhx6-I__CfPdJNOdB-9">
          <mxGeometry width="50" height="50" relative="1" as="geometry">
            <mxPoint x="310" y="375" as="sourcePoint" />
            <mxPoint x="420" y="325" as="targetPoint" />
          </mxGeometry>
        </mxCell>
        <mxCell id="EfQrhx6-I__CfPdJNOdB-27" value="" style="endArrow=classic;html=1;rounded=0;exitX=1;exitY=0.5;exitDx=0;exitDy=0;entryX=0;entryY=0.5;entryDx=0;entryDy=0;" edge="1" parent="1" source="EfQrhx6-I__CfPdJNOdB-7" target="EfQrhx6-I__CfPdJNOdB-10">
          <mxGeometry width="50" height="50" relative="1" as="geometry">
            <mxPoint x="320" y="385" as="sourcePoint" />
            <mxPoint x="430" y="335" as="targetPoint" />
          </mxGeometry>
        </mxCell>
        <mxCell id="EfQrhx6-I__CfPdJNOdB-28" value="" style="endArrow=classic;html=1;rounded=0;exitX=1;exitY=0.5;exitDx=0;exitDy=0;entryX=0;entryY=0.5;entryDx=0;entryDy=0;" edge="1" parent="1" source="EfQrhx6-I__CfPdJNOdB-8" target="EfQrhx6-I__CfPdJNOdB-10">
          <mxGeometry width="50" height="50" relative="1" as="geometry">
            <mxPoint x="330" y="395" as="sourcePoint" />
            <mxPoint x="440" y="345" as="targetPoint" />
          </mxGeometry>
        </mxCell>
        <mxCell id="EfQrhx6-I__CfPdJNOdB-29" value="" style="endArrow=classic;html=1;rounded=0;exitX=1;exitY=0.5;exitDx=0;exitDy=0;entryX=0;entryY=0.5;entryDx=0;entryDy=0;" edge="1" parent="1" source="EfQrhx6-I__CfPdJNOdB-9" target="EfQrhx6-I__CfPdJNOdB-10">
          <mxGeometry width="50" height="50" relative="1" as="geometry">
            <mxPoint x="340" y="405" as="sourcePoint" />
            <mxPoint x="450" y="355" as="targetPoint" />
          </mxGeometry>
        </mxCell>
        <mxCell id="EfQrhx6-I__CfPdJNOdB-30" value="" style="endArrow=classic;html=1;rounded=0;exitX=1;exitY=0.5;exitDx=0;exitDy=0;entryX=0;entryY=0.5;entryDx=0;entryDy=0;" edge="1" parent="1" source="EfQrhx6-I__CfPdJNOdB-7" target="EfQrhx6-I__CfPdJNOdB-11">
          <mxGeometry width="50" height="50" relative="1" as="geometry">
            <mxPoint x="350" y="415" as="sourcePoint" />
            <mxPoint x="460" y="365" as="targetPoint" />
          </mxGeometry>
        </mxCell>
        <mxCell id="EfQrhx6-I__CfPdJNOdB-31" value="" style="endArrow=classic;html=1;rounded=0;exitX=1;exitY=0.5;exitDx=0;exitDy=0;entryX=0;entryY=0.5;entryDx=0;entryDy=0;" edge="1" parent="1" source="EfQrhx6-I__CfPdJNOdB-8" target="EfQrhx6-I__CfPdJNOdB-11">
          <mxGeometry width="50" height="50" relative="1" as="geometry">
            <mxPoint x="360" y="425" as="sourcePoint" />
            <mxPoint x="470" y="375" as="targetPoint" />
          </mxGeometry>
        </mxCell>
        <mxCell id="EfQrhx6-I__CfPdJNOdB-32" value="" style="endArrow=classic;html=1;rounded=0;exitX=1;exitY=0.5;exitDx=0;exitDy=0;entryX=0;entryY=0.5;entryDx=0;entryDy=0;" edge="1" parent="1" source="EfQrhx6-I__CfPdJNOdB-9" target="EfQrhx6-I__CfPdJNOdB-11">
          <mxGeometry width="50" height="50" relative="1" as="geometry">
            <mxPoint x="370" y="435" as="sourcePoint" />
            <mxPoint x="480" y="385" as="targetPoint" />
          </mxGeometry>
        </mxCell>
        <mxCell id="EfQrhx6-I__CfPdJNOdB-33" value="" style="endArrow=classic;html=1;rounded=0;exitX=1;exitY=0.5;exitDx=0;exitDy=0;entryX=0;entryY=0.5;entryDx=0;entryDy=0;" edge="1" parent="1" source="EfQrhx6-I__CfPdJNOdB-7" target="EfQrhx6-I__CfPdJNOdB-12">
          <mxGeometry width="50" height="50" relative="1" as="geometry">
            <mxPoint x="380" y="445" as="sourcePoint" />
            <mxPoint x="490" y="395" as="targetPoint" />
          </mxGeometry>
        </mxCell>
        <mxCell id="EfQrhx6-I__CfPdJNOdB-34" value="" style="endArrow=classic;html=1;rounded=0;entryX=0;entryY=0.5;entryDx=0;entryDy=0;exitX=1;exitY=0.5;exitDx=0;exitDy=0;" edge="1" parent="1" source="EfQrhx6-I__CfPdJNOdB-8" target="EfQrhx6-I__CfPdJNOdB-12">
          <mxGeometry width="50" height="50" relative="1" as="geometry">
            <mxPoint x="370" y="330" as="sourcePoint" />
            <mxPoint x="500" y="405" as="targetPoint" />
          </mxGeometry>
        </mxCell>
        <mxCell id="EfQrhx6-I__CfPdJNOdB-35" value="" style="endArrow=classic;html=1;rounded=0;exitX=1;exitY=0.5;exitDx=0;exitDy=0;entryX=0;entryY=0.5;entryDx=0;entryDy=0;" edge="1" parent="1" source="EfQrhx6-I__CfPdJNOdB-9" target="EfQrhx6-I__CfPdJNOdB-12">
          <mxGeometry width="50" height="50" relative="1" as="geometry">
            <mxPoint x="400" y="465" as="sourcePoint" />
            <mxPoint x="510" y="415" as="targetPoint" />
          </mxGeometry>
        </mxCell>
        <mxCell id="EfQrhx6-I__CfPdJNOdB-36" value="" style="endArrow=classic;html=1;rounded=0;exitX=1;exitY=0.5;exitDx=0;exitDy=0;entryX=0;entryY=0.5;entryDx=0;entryDy=0;" edge="1" parent="1" source="EfQrhx6-I__CfPdJNOdB-7" target="EfQrhx6-I__CfPdJNOdB-13">
          <mxGeometry width="50" height="50" relative="1" as="geometry">
            <mxPoint x="410" y="475" as="sourcePoint" />
            <mxPoint x="520" y="425" as="targetPoint" />
          </mxGeometry>
        </mxCell>
        <mxCell id="EfQrhx6-I__CfPdJNOdB-37" value="" style="endArrow=classic;html=1;rounded=0;exitX=1;exitY=0.5;exitDx=0;exitDy=0;entryX=0;entryY=0.5;entryDx=0;entryDy=0;" edge="1" parent="1" source="EfQrhx6-I__CfPdJNOdB-8" target="EfQrhx6-I__CfPdJNOdB-13">
          <mxGeometry width="50" height="50" relative="1" as="geometry">
            <mxPoint x="420" y="485" as="sourcePoint" />
            <mxPoint x="530" y="435" as="targetPoint" />
          </mxGeometry>
        </mxCell>
        <mxCell id="EfQrhx6-I__CfPdJNOdB-38" value="" style="endArrow=classic;html=1;rounded=0;exitX=1;exitY=0.5;exitDx=0;exitDy=0;entryX=0;entryY=0.5;entryDx=0;entryDy=0;" edge="1" parent="1" source="EfQrhx6-I__CfPdJNOdB-9" target="EfQrhx6-I__CfPdJNOdB-13">
          <mxGeometry width="50" height="50" relative="1" as="geometry">
            <mxPoint x="430" y="495" as="sourcePoint" />
            <mxPoint x="540" y="445" as="targetPoint" />
          </mxGeometry>
        </mxCell>
        <mxCell id="EfQrhx6-I__CfPdJNOdB-39" value="" style="rounded=1;whiteSpace=wrap;html=1;fillColor=none;dashed=1;strokeWidth=2;" vertex="1" parent="1">
          <mxGeometry x="150" y="135" width="70" height="380" as="geometry" />
        </mxCell>
        <mxCell id="EfQrhx6-I__CfPdJNOdB-40" value="" style="endArrow=classic;html=1;rounded=0;exitX=1;exitY=0.5;exitDx=0;exitDy=0;entryX=0;entryY=0.5;entryDx=0;entryDy=0;" edge="1" parent="1" source="EfQrhx6-I__CfPdJNOdB-3" target="EfQrhx6-I__CfPdJNOdB-9">
          <mxGeometry width="50" height="50" relative="1" as="geometry">
            <mxPoint x="210" y="375" as="sourcePoint" />
            <mxPoint x="320" y="425" as="targetPoint" />
          </mxGeometry>
        </mxCell>
        <mxCell id="EfQrhx6-I__CfPdJNOdB-41" value="" style="rounded=1;whiteSpace=wrap;html=1;fillColor=none;dashed=1;strokeWidth=2;" vertex="1" parent="1">
          <mxGeometry x="470" y="135" width="70" height="380" as="geometry" />
        </mxCell>
        <mxCell id="EfQrhx6-I__CfPdJNOdB-42" value="" style="rounded=1;whiteSpace=wrap;html=1;fillColor=none;dashed=1;strokeWidth=2;" vertex="1" parent="1">
          <mxGeometry x="310" y="135" width="70" height="380" as="geometry" />
        </mxCell>
        <mxCell id="EfQrhx6-I__CfPdJNOdB-43" value="Input Layer" style="text;html=1;align=center;verticalAlign=middle;resizable=0;points=[];autosize=1;strokeColor=none;fillColor=none;fontSize=14;" vertex="1" parent="1">
          <mxGeometry x="140" y="88" width="90" height="30" as="geometry" />
        </mxCell>
        <mxCell id="EfQrhx6-I__CfPdJNOdB-44" value="Hidden Layer" style="text;html=1;align=center;verticalAlign=middle;resizable=0;points=[];autosize=1;strokeColor=none;fillColor=none;fontSize=14;" vertex="1" parent="1">
          <mxGeometry x="290" y="88" width="110" height="30" as="geometry" />
        </mxCell>
        <mxCell id="EfQrhx6-I__CfPdJNOdB-45" value="Output Layer" style="text;html=1;align=center;verticalAlign=middle;resizable=0;points=[];autosize=1;strokeColor=none;fillColor=none;fontSize=14;" vertex="1" parent="1">
          <mxGeometry x="455" y="88" width="100" height="30" as="geometry" />
        </mxCell>
        <mxCell id="EfQrhx6-I__CfPdJNOdB-46" value="&lt;b&gt;&lt;font style=&quot;font-size: 16px;&quot;&gt;$$W_1$$&lt;/font&gt;&lt;/b&gt;" style="text;html=1;align=center;verticalAlign=middle;resizable=0;points=[];autosize=1;strokeColor=none;fillColor=none;" vertex="1" parent="1">
          <mxGeometry x="220" y="135" width="90" height="30" as="geometry" />
        </mxCell>
        <mxCell id="EfQrhx6-I__CfPdJNOdB-47" value="&lt;b&gt;&lt;font style=&quot;font-size: 16px;&quot;&gt;$$W_2$$&lt;/font&gt;&lt;/b&gt;" style="text;html=1;align=center;verticalAlign=middle;resizable=0;points=[];autosize=1;strokeColor=none;fillColor=none;" vertex="1" parent="1">
          <mxGeometry x="380" y="135" width="90" height="30" as="geometry" />
        </mxCell>
        <mxCell id="EfQrhx6-I__CfPdJNOdB-48" value="&lt;b&gt;&lt;font style=&quot;font-size: 16px;&quot;&gt;$$a_0$$&lt;/font&gt;&lt;/b&gt;" style="text;html=1;align=center;verticalAlign=middle;resizable=0;points=[];autosize=1;strokeColor=none;fillColor=none;" vertex="1" parent="1">
          <mxGeometry x="140" y="520" width="90" height="30" as="geometry" />
        </mxCell>
        <mxCell id="EfQrhx6-I__CfPdJNOdB-49" value="&lt;b&gt;&lt;font style=&quot;font-size: 16px;&quot;&gt;$$a_1$$&lt;/font&gt;&lt;/b&gt;" style="text;html=1;align=center;verticalAlign=middle;resizable=0;points=[];autosize=1;strokeColor=none;fillColor=none;" vertex="1" parent="1">
          <mxGeometry x="300" y="520" width="90" height="30" as="geometry" />
        </mxCell>
        <mxCell id="EfQrhx6-I__CfPdJNOdB-50" value="&lt;b&gt;&lt;font style=&quot;font-size: 16px;&quot;&gt;$$a_2$$&lt;/font&gt;&lt;/b&gt;" style="text;html=1;align=center;verticalAlign=middle;resizable=0;points=[];autosize=1;strokeColor=none;fillColor=none;" vertex="1" parent="1">
          <mxGeometry x="465" y="520" width="90" height="30" as="geometry" />
        </mxCell>
      </root>
    </mxGraphModel>
  </diagram>
</mxfile>
